<?xml version="1.0" encoding="UTF-8"?>
<svg id="uuid-3ed97fa8-55f9-40ca-8e13-0f1572315436" xmlns="http://www.w3.org/2000/svg" version="1.1" viewBox="0 0 563.48 74.27">
  <!-- Generator: Adobe Illustrator 29.7.0, SVG Export Plug-In . SVG Version: 2.1.1 Build 138)  -->
  <defs>
    <style>
      .st0 {
        fill: #fb2c36;
      }
    </style>
  </defs>
  <path class="st0" d="M0,72.8V1.81h14.45v58.94h35.94v12.06H0Z"/>
  <path class="st0" d="M70.85,36.77l-12.45-2.25c3.35-11.28,10.17-14.66,22.46-14.75,9.42.15,15.72,1.13,20,7.69,4.82,11.56-1.84,33.76,4.81,45.34h-13.57c-.41-.9-1.36-4.25-1.81-5.66-18.83,19.15-48.18-5.41-25.32-21.61,4.75-2.63,20.5-4.61,24.24-6.57,2.2-10.95-16.14-11.94-18.36-2.2h0ZM89.21,47.9c-4.75,2.21-18.69,1.78-18.51,9.33,1.21,12.01,21.52,9.02,18.51-9.33Z"/>
  <path class="st0" d="M129.35,72.8h-13.72V20.95h12.74v7.37c4.77-9.09,12.73-10.71,20.85-5.96l-4.25,11.96c-21.36-11.46-14.4,25.55-15.62,38.48h0Z"/>
  <path class="st0" d="M165.38,36.77l-12.45-2.25c3.35-11.28,10.17-14.66,22.46-14.75,9.42.15,15.72,1.13,20,7.69,4.82,11.56-1.84,33.76,4.81,45.34h-13.57c-.41-.9-1.36-4.25-1.81-5.66-18.83,19.15-48.18-5.41-25.32-21.61,4.75-2.63,20.5-4.61,24.24-6.57,2.2-10.95-16.14-11.94-18.36-2.2h0ZM183.74,47.9c-4.75,2.21-18.69,1.78-18.51,9.33,1.21,12.01,21.52,9.02,18.51-9.33Z"/>
  <path class="st0" d="M256.64,46.48l14.01,4.44c-10.12,38.6-65.23,25.79-62.35-13.28C207.99,15.77,220.27,0,241.8,0c14.51.14,24.82,6.86,28.66,20.95l-14.31,3.42c-6.78-21.59-35.42-12.95-32.96,12.21-2.76,26.35,27.09,36.11,33.45,9.91h0Z"/>
  <path class="st0" d="M279.79,46.14c0-35.29,54.08-34.79,53.52.59.56,36.13-55.22,36.26-53.52-.59ZM293.85,46.88c-.95,21.09,26.4,21.05,25.34-.1.93-20.98-26.33-20.88-25.34.1Z"/>
  <path class="st0" d="M357.18,72.8h-13.72V20.95h12.74v7.37c4.77-9.09,12.73-10.71,20.85-5.96l-4.25,11.96c-21.36-11.46-14.4,25.55-15.62,38.48Z"/>
  <path class="st0" d="M412.99,56.3l13.67,2.29c-9.76,26.37-50,17.38-47.7-11.33-.5-38.76,52.31-35.75,48.44,3.56h-34.38c-1.27,12.37,16.69,18.76,19.97,5.47h0ZM413.77,42.43c.65-16.11-21.38-15.86-20.51,0h20.51Z"/>
  <path d="M438.87,72.8V1.22h14.45v31.79l29.2-31.79h19.43l-26.95,27.88,28.42,43.7h-18.7l-19.68-33.59-11.72,11.96v21.63h-14.45Z"/>
  <path d="M510.79,13.92V1.22h13.72v12.7h-13.72ZM510.79,72.8V20.95h13.72v51.86h-13.72Z"/>
  <path d="M562.35,20.95v10.94h-9.38v20.9c-.72,9.29,1.39,11.6,9.33,8.5l1.17,10.64c-32.51,10.69-22.82-19.85-24.27-40.04h-6.3v-10.94h6.3v-10.3l13.77-8.01v18.31h9.38Z"/>
</svg>